<svg width="128" height="128" xmlns:xlink="http://www.w3.org/1999/xlink" xmlns="http://www.w3.org/2000/svg"><defs><linearGradient id="b"><stop style="stop-color:#211822;stop-opacity:1" offset="0"/><stop style="stop-color:#7c5e88;stop-opacity:1" offset="1"/></linearGradient><linearGradient id="a"><stop style="stop-color:#f22323;stop-opacity:1" offset=".074"/><stop style="stop-color:#7124d6;stop-opacity:1" offset=".384"/><stop style="stop-color:#2b4a65;stop-opacity:1" offset=".942"/></linearGradient><linearGradient xlink:href="#a" id="c" x1="0" y1="0" x2="32" y2="32" gradientUnits="userSpaceOnUse"/><linearGradient xlink:href="#b" id="e" x1="-123.051" y1="230.898" x2="-12.73" y2="271.869" gradientUnits="userSpaceOnUse" gradientTransform="rotate(-90 -95.637 91.747)"/><filter style="color-interpolation-filters:sRGB" id="d" x="-.15" y="-.15" width="1.3" height="1.3"><feGaussianBlur stdDeviation="2 2" result="blur"/></filter></defs><path style="fill:url(#c);fill-opacity:1;stroke-width:5.496;stroke-linejoin:bevel;stroke-miterlimit:40.6" d="M4 0h24l4 4v24l-4 4H4l-4-4V4z" transform="scale(4)"/><path style="display:inline;fill:#000;fill-opacity:1;stroke-width:5.496;stroke-linejoin:bevel;stroke-miterlimit:40.6;filter:url(#d)" d="M11 0h10l11 11v10L21 32H11L0 21V11z" transform="scale(4)"/><path style="display:inline;fill:#000;fill-opacity:1;stroke-width:5.496;stroke-linejoin:bevel;stroke-miterlimit:40.6" d="M11 0h10l11 11v10L21 32H11L0 21V11z" transform="scale(4)"/><path style="fill:url(#e);fill-opacity:1;stroke-width:1.23016" d="M55.337 8.84 43.515 20.69l.02 16.965 11.802 11.768v69.736h17.326V49.455l11.822-11.851-.02-16.965L72.664 8.87v24.66H55.337z"/></svg>